<svg xmlns="http://www.w3.org/2000/svg" width="64" height="64">
  <defs>
    <linearGradient id="g" x1="0" y1="0" x2="1" y2="1">
      <stop offset="0" stop-color="#7c5cff"/>
      <stop offset="1" stop-color="#22c55e"/>
    </linearGradient>
  </defs>
  <rect x="4" y="4" width="56" height="56" rx="16" fill="url(#g)"/>
  <path d="M40.5 22.5c-2.3-2-5.3-3-9-3-6.6 0-11 3.4-11 8.1 0 3.5 2.5 5.6 7.5 6.6l2.4.5c3.3.7 4.5 1.5 4.5 2.7 0 1.7-2 2.9-5 2.9-3.4 0-6.4-1.2-8.8-3.7l-2.6 3c2.9 3 7 4.7 11.6 4.7 7 0 11.6-3.5 11.6-8.4 0-3.9-2.7-6.1-8.3-7.2l-2.4-.5c-2.6-.6-3.7-1.2-3.7-2.4 0-1.5 1.8-2.6 4.6-2.6 2.8 0 5.1.9 6.9 2.4l2.7-3.1z" fill="#fff"/>
</svg>
